<svg width="187" height="26" viewBox="0 0 187 26" fill="none" xmlns="http://www.w3.org/2000/svg">
<g clip-path="url(#clip0_4128_205)">
<path d="M23.9573 0H4.17379C1.86867 0 0 1.72711 0 3.85761V22.1424C0 24.2729 1.86867 26 4.17379 26H23.9573C26.2624 26 28.1311 24.2729 28.1311 22.1424V3.85761C28.1311 1.72711 26.2624 0 23.9573 0Z" fill="#B6D7FF"/>
<path d="M22.8205 6.50928C23.0222 6.50928 23.2157 6.43521 23.3583 6.30336C23.501 6.17151 23.5811 5.99269 23.5811 5.80623V4.28162C23.5811 4.09515 23.501 3.91633 23.3583 3.78448C23.2157 3.65263 23.0222 3.57856 22.8205 3.57856H5.31049C5.21049 3.57821 5.11141 3.59616 5.01895 3.63137C4.92649 3.66657 4.84248 3.71835 4.77177 3.7837C4.70106 3.84906 4.64504 3.9267 4.60695 4.01216C4.56885 4.09761 4.54943 4.18919 4.54981 4.28162V5.80623C4.54943 5.89865 4.56885 5.99023 4.60695 6.07569C4.64504 6.16114 4.70106 6.23879 4.77177 6.30414C4.84248 6.36949 4.92649 6.42127 5.01895 6.45648C5.11141 6.49168 5.21049 6.50963 5.31049 6.50928H11.1766V19.4777H5.31049C5.21049 19.4773 5.11141 19.4953 5.01895 19.5305C4.92649 19.5657 4.84248 19.6175 4.77177 19.6828C4.70106 19.7482 4.64504 19.8258 4.60695 19.9113C4.56885 19.9967 4.54943 20.0883 4.54981 20.1807V21.7054C4.54943 21.7978 4.56885 21.8894 4.60695 21.9748C4.64504 22.0603 4.70106 22.1379 4.77177 22.2033C4.84248 22.2686 4.92649 22.3204 5.01895 22.3556C5.11141 22.3908 5.21049 22.4088 5.31049 22.4084H22.8205C23.0222 22.4084 23.2157 22.3343 23.3583 22.2025C23.501 22.0706 23.5811 21.8918 23.5811 21.7054V20.1913C23.5827 20.0981 23.5641 20.0055 23.5265 19.919C23.489 19.8325 23.4332 19.7537 23.3624 19.6873C23.2916 19.6209 23.2073 19.5682 23.1142 19.5322C23.0212 19.4962 22.9213 19.4777 22.8205 19.4777H16.9544V6.50928H22.8205Z" fill="white"/>
<path d="M22.8207 6.7253C23.0839 6.7246 23.3361 6.62747 23.5219 6.45521C23.7078 6.28294 23.8121 6.04959 23.8121 5.80632V4.28171C23.8121 4.03844 23.7078 3.80509 23.5219 3.63282C23.3361 3.46056 23.0839 3.36343 22.8207 3.36273H5.31071C5.04723 3.36343 4.79477 3.46047 4.60846 3.63266C4.42216 3.80485 4.31716 4.0382 4.31641 4.28171V5.80632C4.31716 6.04984 4.42216 6.28318 4.60846 6.45537C4.79477 6.62756 5.04723 6.72461 5.31071 6.7253H10.9432V19.2724H5.31071C5.18013 19.2724 5.05084 19.2962 4.93021 19.3423C4.80957 19.3885 4.69996 19.4562 4.60763 19.5416C4.5153 19.6269 4.44206 19.7282 4.39209 19.8397C4.34212 19.9512 4.31641 20.0707 4.31641 20.1914V21.716C4.31641 21.96 4.42107 22.194 4.60746 22.3667C4.79384 22.5395 5.04674 22.6369 5.31071 22.6376H22.8207C23.0839 22.6369 23.3361 22.5398 23.5219 22.3675C23.7078 22.1952 23.8121 21.9619 23.8121 21.7186V20.1914C23.8125 20.0708 23.7871 19.9514 23.7375 19.8399C23.6878 19.7284 23.6149 19.6271 23.5228 19.5417C23.4307 19.4563 23.3212 19.3886 23.2008 19.3424C23.0803 19.2962 22.9511 19.2724 22.8207 19.2724H17.1854V6.7253H22.8207ZM22.8207 19.7016C22.8901 19.7016 22.9589 19.7143 23.023 19.7389C23.0872 19.7636 23.1454 19.7997 23.1944 19.8452C23.2434 19.8907 23.2821 19.9447 23.3084 20.0041C23.3348 20.0636 23.3481 20.1272 23.3477 20.1914V21.716C23.3477 21.8452 23.2922 21.9691 23.1934 22.0604C23.0945 22.1518 22.9605 22.2031 22.8207 22.2031H5.31071C5.17092 22.2031 5.03686 22.1518 4.93802 22.0604C4.83917 21.9691 4.78364 21.8452 4.78364 21.716V20.1914C4.78327 20.1272 4.79662 20.0636 4.82294 20.0041C4.84926 19.9447 4.88803 19.8907 4.93701 19.8452C4.98599 19.7997 5.04422 19.7636 5.10835 19.7389C5.17248 19.7143 5.24125 19.7016 5.31071 19.7016H11.4076V6.29609H5.31071C5.17066 6.2954 5.03661 6.24349 4.93784 6.15171C4.83908 6.05994 4.78364 5.93576 4.78364 5.80632V4.28171C4.78364 4.15227 4.83908 4.02809 4.93784 3.93632C5.03661 3.84454 5.17066 3.79264 5.31071 3.79194H22.8207C22.9607 3.79264 23.0948 3.84454 23.1935 3.93632C23.2923 4.02809 23.3477 4.15227 23.3477 4.28171V5.80632C23.3477 5.93576 23.2923 6.05994 23.1935 6.15171C23.0948 6.24349 22.9607 6.2954 22.8207 6.29609H16.721V19.7016H22.8207Z" fill="#1F3D8B"/>
<path d="M22.5384 18.1611H22.4929L5.54413 16.7944C5.4176 16.782 5.29991 16.7286 5.21193 16.6436C5.12396 16.5587 5.07138 16.4476 5.06353 16.3303C5.05567 16.2129 5.09305 16.0967 5.16903 16.0024C5.24501 15.908 5.35469 15.8416 5.4786 15.8149L19.641 12.9763L5.7749 10.2326C5.64732 10.2069 5.53408 10.1394 5.45607 10.0426C5.37806 9.94585 5.34053 9.82626 5.3504 9.70592C5.35808 9.58755 5.41149 9.47566 5.5009 9.39061C5.59031 9.30556 5.70978 9.253 5.83758 9.24248L22.339 7.839C22.4807 7.82678 22.6218 7.86707 22.7313 7.95102C22.8409 8.03497 22.9098 8.1557 22.9231 8.28664C22.9363 8.41758 22.8927 8.54802 22.8018 8.64925C22.711 8.75048 22.5804 8.81422 22.4387 8.82644L9.43017 9.94028L22.302 12.4892C22.4223 12.5125 22.5303 12.5734 22.6078 12.6616C22.6854 12.7499 22.7277 12.86 22.7277 12.9737C22.7277 13.0874 22.6854 13.1975 22.6078 13.2858C22.5303 13.374 22.4223 13.4349 22.302 13.4582L9.16806 16.0914L22.584 17.171C22.7261 17.1766 22.8599 17.2341 22.9561 17.3309C23.0523 17.4277 23.1029 17.5558 23.0968 17.6871C23.0908 17.8184 23.0286 17.9421 22.9238 18.031C22.8191 18.1198 22.6805 18.1666 22.5384 18.1611Z" fill="#1F3D8B"/>
<path d="M51.8267 7.02005V4.43427H41.0859V7.02005H44.8096V18.2769H41.0859V20.8416H44.8096V20.8442H48.1059V20.8416H51.8267V18.2769H48.1059V7.02005H51.8267Z" fill="white"/>
<path d="M71.3198 20.844L71.2942 9.96895L65.4623 18.9691H63.9922L58.1603 10.1111V20.844H55.0264V4.43927H57.7415L64.7899 15.3117L71.713 4.43927H74.4252L74.4509 20.844H71.3198Z" fill="white"/>
<path d="M82.5899 19.9885C81.1789 19.2922 80.0029 18.2499 79.191 16.9761C78.361 15.6584 77.9363 14.156 77.9631 12.6314C77.938 11.1077 78.3678 9.60714 79.2053 8.29453C80.027 7.02221 81.2091 5.98151 82.6241 5.28481C84.1128 4.54885 85.7792 4.17379 87.4674 4.19467C88.8346 4.178 90.1914 4.41715 91.456 4.89773C92.6284 5.34836 93.6704 6.04633 94.4987 6.93581L92.3677 8.77904C91.7732 8.16276 91.042 7.67207 90.224 7.34037C89.4059 7.00867 88.5201 6.84375 87.6269 6.85682C86.4821 6.84901 85.3544 7.11478 84.3534 7.62834C83.4068 8.10143 82.6245 8.81262 82.097 9.67959C81.5508 10.5806 81.2708 11.5986 81.285 12.6314C81.2662 13.6721 81.5464 14.6989 82.097 15.6069C82.6245 16.4738 83.4068 17.185 84.3534 17.6581C85.3571 18.1593 86.4834 18.4132 87.6241 18.3954C88.5194 18.4081 89.407 18.2409 90.2256 17.9054C91.0441 17.5699 91.774 17.074 92.3648 16.4521L94.4959 18.3269C93.664 19.2185 92.6168 19.9167 91.4389 20.365C90.1736 20.8437 88.8173 21.0827 87.4503 21.0681C85.7573 21.0949 84.0848 20.7234 82.5899 19.9885Z" fill="white"/>
<path d="M110.977 18.2898V20.844H97.6641V4.43927H110.621V6.99345H100.972V11.2592H109.544V13.766H100.972V18.2898H110.977Z" fill="white"/>
<path d="M119.393 7.0174H113.507V4.43951H128.57V7.0174H122.689V20.8442H119.393V7.0174Z" fill="white"/>
<path d="M142.954 20.8442L139.33 16.0387C139.102 16.0574 138.873 16.0653 138.644 16.0624H134.638V20.8442H131.342V4.43953H138.644C140.022 4.41061 141.392 4.65015 142.664 5.14259C143.736 5.55722 144.65 6.25872 145.288 7.15697C145.915 8.09151 146.233 9.17523 146.202 10.2747C146.234 11.4038 145.893 12.5151 145.225 13.4608C144.539 14.3788 143.56 15.0758 142.424 15.4541L146.507 20.8442H142.954ZM141.763 7.86003C141.021 7.30004 139.931 7.01917 138.493 7.01742H134.638V13.5556H138.493C139.929 13.5556 141.019 13.2703 141.763 12.6998C142.508 12.1293 142.88 11.3209 142.88 10.2747C142.88 9.23016 142.508 8.42529 141.763 7.86003Z" fill="white"/>
<path d="M153.276 19.9884C151.857 19.2906 150.674 18.2446 149.857 16.9655C149.019 15.654 148.587 14.1545 148.609 12.6313C148.587 11.1122 149.017 9.61658 149.851 8.30765C150.668 7.02801 151.851 5.98185 153.27 5.28476C154.785 4.56835 156.462 4.19476 158.163 4.19476C159.865 4.19476 161.542 4.56835 163.056 5.28476C164.473 5.98003 165.655 7.02106 166.475 8.29448C167.315 9.60655 167.749 11.1068 167.729 12.6313C167.758 14.1566 167.333 15.6599 166.498 16.9761C165.679 18.2509 164.496 19.293 163.079 19.9884C161.565 20.7048 159.888 21.0784 158.186 21.0784C156.485 21.0784 154.808 20.7048 153.293 19.9884H153.276ZM161.37 17.6686C162.306 17.1855 163.078 16.4717 163.601 15.6068C164.134 14.6962 164.413 13.6772 164.413 12.6419C164.413 11.6066 164.134 10.5876 163.601 9.6769C163.076 8.81687 162.304 8.10784 161.37 7.62829C160.387 7.14262 159.289 6.88854 158.175 6.88854C157.06 6.88854 155.963 7.14262 154.98 7.62829C154.044 8.11142 153.272 8.82519 152.749 9.69007C152.216 10.6007 151.937 11.6197 151.937 12.655C151.937 13.6903 152.216 14.7093 152.749 15.62C153.272 16.4849 154.044 17.1986 154.98 17.6818C155.963 18.1659 157.06 18.4191 158.175 18.4191C159.289 18.4191 160.386 18.1659 161.37 17.6818V17.6686Z" fill="white"/>
<path d="M187.011 4.43951V20.8442H184.299L174.498 9.73484V20.8442H171.228V4.43951H173.94L183.729 15.5489V4.43951H187.011Z" fill="white"/>
</g>
<defs>
<clipPath id="clip0_4128_205">
<rect width="187" height="26" fill="white"/>
</clipPath>
</defs>
</svg>
